<?xml version="1.0" encoding="UTF-8" ?>
<!DOCTYPE svg PUBLIC "-//W3C//DTD SVG 1.1//EN" "http://www.w3.org/Graphics/SVG/1.1/DTD/svg11.dtd">
<svg width="662pt" height="912pt" viewBox="0 0 662 912" version="1.1" xmlns="http://www.w3.org/2000/svg">
<g id="#fbfcfdfe">
<path fill="#fbfcfd" opacity="1.00" d=" M 216.88 0.00 L 444.61 0.00 C 444.91 44.40 444.62 88.81 444.75 133.22 C 446.80 133.68 448.85 134.10 450.92 134.49 C 450.98 95.08 450.86 55.68 450.98 16.28 C 469.64 16.24 488.30 16.26 506.97 16.27 C 507.10 61.63 506.82 106.99 507.10 152.35 C 564.60 176.42 613.50 221.67 639.19 278.76 C 653.14 308.66 659.82 341.43 662.00 374.18 L 662.00 392.42 C 659.75 462.51 632.33 536.64 572.80 577.71 C 554.31 591.19 525.62 600.82 507.00 582.38 C 507.00 614.29 506.96 646.21 507.01 678.13 C 524.79 669.76 541.82 659.90 558.31 649.24 C 567.33 660.40 576.42 671.52 585.46 682.66 C 566.78 694.23 548.20 705.98 529.17 716.97 C 542.80 730.56 557.24 743.51 570.47 757.42 C 570.52 808.94 570.65 860.48 570.41 912.00 L 451.49 912.00 C 450.19 857.82 451.31 803.41 450.93 749.14 C 448.81 749.57 446.66 749.95 444.68 750.86 C 444.79 801.18 444.71 851.51 444.72 901.84 C 368.77 901.89 292.83 901.87 216.89 901.85 C 216.80 850.11 216.94 798.37 216.82 746.63 C 214.87 746.06 212.92 745.52 210.96 745.00 C 210.90 800.50 210.97 855.99 210.93 911.49 C 171.05 911.52 131.17 911.52 91.29 911.49 C 91.26 860.01 91.22 808.52 91.31 757.04 C 106.05 742.74 120.83 728.48 135.56 714.18 C 69.99 678.77 21.57 613.92 7.46 540.61 C -6.83 467.46 -0.47 389.25 29.96 320.85 C 55.60 263.06 100.69 214.94 154.89 182.83 C 154.92 127.31 154.85 71.79 154.92 16.28 C 173.59 16.24 192.26 16.26 210.92 16.27 C 210.97 62.74 210.90 109.21 210.96 155.67 C 212.92 154.98 214.87 154.26 216.82 153.53 C 216.93 102.35 216.81 51.18 216.88 0.00 M 221.05 4.40 C 220.95 53.59 221.02 102.77 221.01 151.96 C 291.06 127.67 367.33 119.98 440.57 132.36 C 440.57 89.72 440.60 47.07 440.55 4.43 C 367.38 4.36 294.22 4.41 221.05 4.40 M 159.06 20.42 C 158.98 73.76 159.02 127.10 159.05 180.44 C 174.36 171.69 190.27 163.99 206.65 157.43 C 206.78 111.77 206.71 66.10 206.68 20.44 C 190.81 20.39 174.94 20.42 159.06 20.42 M 455.08 20.43 C 455.03 58.77 454.98 97.12 455.11 135.47 C 471.34 139.22 487.30 144.18 502.74 150.44 C 502.75 107.11 502.79 63.77 502.72 20.43 C 486.84 20.40 470.96 20.41 455.08 20.43 M 183.57 174.49 C 128.48 201.20 80.19 243.16 49.48 296.45 C 12.25 360.43 1.03 437.08 8.82 510.02 C 15.10 569.84 40.74 628.52 85.24 669.73 C 137.07 718.63 207.36 743.25 277.08 751.76 C 346.65 758.15 419.42 756.71 485.41 731.41 C 517.58 718.42 546.72 699.32 576.07 681.08 C 569.75 673.22 563.46 665.32 556.93 657.64 C 498.64 695.15 431.01 717.60 361.89 722.67 C 323.39 727.02 284.40 722.64 246.99 713.08 C 186.51 697.65 128.03 665.26 91.82 613.20 C 52.21 557.03 43.74 484.62 52.73 417.90 C 61.08 351.50 95.40 288.58 148.29 247.26 C 232.47 182.07 348.50 156.06 451.39 186.57 C 506.27 202.31 560.02 232.46 591.35 281.63 C 611.32 312.71 619.86 350.30 618.02 387.01 C 616.87 436.94 603.61 489.41 568.46 526.55 C 556.79 539.28 542.34 548.87 527.89 558.13 C 516.97 539.65 510.40 518.95 505.23 498.23 C 527.71 474.19 558.82 456.43 574.76 427.38 C 568.49 425.60 560.69 424.76 555.44 429.42 C 532.74 446.85 510.39 464.78 487.40 481.81 C 497.39 422.60 519.35 366.48 542.06 311.25 C 534.44 308.45 524.69 307.23 517.52 311.43 C 486.55 399.47 456.87 488.01 429.08 577.10 C 426.97 587.53 441.60 593.05 447.40 584.42 C 462.23 564.56 468.12 539.77 476.76 516.90 C 489.90 535.47 495.10 558.71 509.80 576.24 C 520.15 588.47 538.49 588.80 552.03 582.07 C 585.93 566.59 611.00 536.45 628.08 504.04 C 675.05 411.60 662.13 288.87 587.63 214.37 C 538.42 163.53 468.01 137.61 398.26 133.59 C 324.89 129.51 249.90 142.31 183.57 174.49 M 221.32 210.55 C 220.60 277.78 221.18 345.14 221.03 412.42 C 226.24 412.89 234.38 414.31 234.39 421.00 C 231.69 428.40 225.88 434.22 221.04 440.31 C 220.99 463.47 220.98 486.63 221.04 509.79 C 242.71 475.14 244.85 433.15 256.98 394.98 C 262.13 379.39 284.00 382.22 295.70 388.29 C 307.13 393.55 303.66 407.93 298.56 416.60 C 289.79 433.85 278.22 451.99 281.63 472.26 C 282.51 501.84 300.84 528.51 297.53 558.53 C 295.53 574.11 285.96 593.54 268.00 593.75 C 250.12 592.28 233.94 582.22 221.01 570.29 C 221.03 613.09 220.95 655.89 221.05 698.70 C 291.38 724.52 369.00 722.28 440.57 702.78 C 440.59 666.89 440.55 631.00 440.59 595.11 C 429.87 596.51 420.52 585.50 423.07 575.18 C 428.57 556.59 435.07 538.29 440.49 519.70 C 440.69 501.07 440.50 482.43 440.58 463.80 C 417.80 489.67 392.63 513.32 366.77 536.07 C 383.28 534.45 401.96 530.98 416.93 540.07 C 426.66 547.05 420.99 561.38 411.31 565.29 C 385.89 577.73 356.77 580.02 328.96 582.17 C 308.40 583.84 294.75 558.41 307.02 542.04 C 332.37 504.67 370.72 478.94 401.56 446.48 C 385.63 447.04 369.99 453.85 353.99 451.07 C 342.98 449.12 339.06 434.02 345.97 425.96 C 354.46 417.01 367.50 415.49 378.95 412.94 C 399.45 409.43 419.59 402.66 440.58 402.92 C 440.57 332.00 440.58 261.08 440.57 190.16 C 367.94 170.11 289.77 180.98 221.32 210.55 M 444.73 191.19 C 444.72 261.90 444.75 332.61 444.72 403.31 C 446.78 403.97 448.86 404.61 450.93 405.27 C 450.92 334.50 450.95 263.73 450.92 192.97 C 448.87 192.32 446.80 191.73 444.73 191.19 M 455.07 194.19 C 455.04 265.33 455.00 336.47 455.09 407.61 C 464.89 414.25 469.52 429.34 460.65 438.63 C 450.64 448.12 456.62 462.95 455.12 475.16 C 470.62 428.24 486.62 381.46 502.60 334.70 C 502.95 294.22 502.65 253.71 502.75 213.22 C 487.55 205.30 471.44 199.23 455.07 194.19 M 211.02 215.38 C 210.86 281.33 210.94 347.28 210.97 413.23 C 212.92 412.91 214.88 412.62 216.84 412.38 C 216.88 345.82 216.87 279.26 216.85 212.71 C 214.88 213.55 212.94 214.45 211.02 215.38 M 507.01 215.32 C 507.00 250.95 506.93 286.58 507.04 322.21 C 510.09 314.84 510.94 303.66 521.20 303.24 C 530.10 302.42 545.88 300.84 548.63 311.87 C 533.93 348.96 517.93 385.76 507.16 424.29 C 506.77 435.87 507.08 447.49 507.01 459.08 C 523.55 446.67 539.44 433.30 556.32 421.42 C 564.23 418.52 582.86 418.08 581.24 430.21 C 564.00 458.63 535.28 476.99 512.12 500.07 C 516.53 516.92 521.84 533.68 529.97 549.15 C 556.32 533.78 577.87 510.44 590.82 482.80 C 608.54 445.33 613.68 402.89 611.36 361.83 C 607.86 297.87 563.09 242.89 507.01 215.32 M 159.08 247.14 C 158.97 270.22 159.00 293.30 159.08 316.38 C 162.68 309.77 162.00 299.03 170.67 296.66 C 180.39 294.61 196.96 292.82 201.28 304.00 C 186.66 342.37 169.41 380.11 159.10 420.04 C 158.93 430.71 159.04 441.39 159.05 452.07 C 174.89 439.86 190.69 427.60 206.49 415.33 C 207.00 349.45 206.58 283.48 206.69 217.57 C 190.06 226.00 173.50 235.41 159.08 247.14 M 66.77 380.85 C 54.95 423.94 52.82 469.56 59.36 513.70 C 67.99 574.94 102.83 632.14 154.90 665.95 C 154.84 631.75 155.00 597.54 154.81 563.35 C 146.82 551.04 140.25 537.88 134.01 524.61 C 125.83 546.69 119.37 571.81 100.10 587.10 C 88.49 595.59 80.01 577.37 82.72 567.71 C 105.17 487.89 128.41 408.24 154.66 329.57 C 155.19 303.08 154.76 276.52 154.88 250.00 C 112.43 282.64 80.89 329.16 66.77 380.85 M 170.48 303.45 C 139.57 390.78 114.08 479.94 88.82 569.04 C 87.46 574.12 91.24 587.69 97.90 580.90 C 118.25 561.95 123.42 533.05 133.02 508.09 C 146.03 531.97 154.04 561.53 177.67 577.37 C 195.48 585.89 207.46 567.88 218.03 556.78 C 226.39 569.00 238.92 577.80 252.41 583.56 C 260.58 586.84 271.24 590.28 278.70 583.67 C 291.23 572.50 293.42 554.08 290.53 538.37 C 285.31 511.65 272.48 485.99 275.19 458.10 C 276.69 436.38 294.44 420.02 297.18 399.01 C 291.28 388.78 272.94 386.70 264.01 394.00 C 250.40 434.31 248.88 479.39 224.70 515.69 C 215.48 527.82 207.49 542.31 193.26 549.21 C 186.98 552.59 178.37 550.24 175.76 543.31 C 167.73 525.90 163.90 506.92 159.29 488.40 C 181.64 465.21 210.98 448.26 227.99 420.27 C 221.61 418.24 213.48 417.21 208.07 422.02 C 185.37 439.53 162.89 457.36 139.96 474.57 C 150.18 415.42 171.59 359.14 194.84 304.07 C 187.33 300.72 178.15 300.44 170.48 303.45 M 360.13 424.13 C 350.31 425.23 343.54 440.06 354.37 444.67 C 374.62 448.17 394.63 436.55 415.04 441.14 C 385.44 474.17 348.83 500.23 320.14 534.14 C 313.28 542.69 304.80 554.02 310.61 565.35 C 315.75 576.81 330.38 577.01 341.02 575.21 C 364.28 572.03 388.93 570.47 409.84 558.86 C 416.36 556.10 418.41 545.91 410.53 543.48 C 389.30 536.49 366.63 542.69 345.37 546.63 C 385.51 511.17 426.54 475.61 457.82 431.75 C 463.71 418.82 448.21 406.90 436.00 409.15 C 410.37 411.69 385.02 417.73 360.13 424.13 M 149.46 459.51 C 151.24 458.18 152.98 456.81 154.76 455.49 C 154.94 449.44 155.06 443.31 154.69 437.30 C 152.47 444.05 151.15 452.18 149.46 459.51 M 496.84 466.94 C 498.80 465.49 500.73 463.99 502.66 462.48 C 502.85 455.53 502.75 448.56 502.70 441.61 C 500.41 449.97 498.62 458.46 496.84 466.94 M 211.05 450.45 C 210.81 474.94 210.97 499.44 210.97 523.93 C 212.86 521.17 215.13 518.66 216.81 515.76 C 216.93 492.07 216.83 468.37 216.86 444.68 C 214.93 446.61 213.03 448.57 211.05 450.45 M 444.79 459.09 C 444.68 474.96 444.70 490.83 444.79 506.70 C 453.33 489.34 450.61 470.09 450.92 451.43 C 448.92 454.02 446.54 456.33 444.79 459.09 M 166.12 490.37 C 171.18 508.23 173.71 527.59 183.52 543.57 C 193.25 546.45 200.87 536.15 206.59 529.59 C 206.88 504.60 206.62 479.58 206.71 454.58 C 193.37 466.72 179.06 477.79 166.12 490.37 M 478.33 531.65 C 471.65 549.89 465.53 568.61 455.11 585.13 C 454.97 622.93 455.05 660.73 455.07 698.53 C 471.27 693.29 487.69 687.62 502.70 679.78 C 502.67 645.70 503.02 611.55 502.52 577.51 C 492.19 563.50 486.63 546.81 478.33 531.65 M 210.99 573.32 C 210.88 613.88 210.95 654.43 210.95 694.99 C 212.90 695.76 214.87 696.49 216.86 697.16 C 216.87 653.81 216.85 610.45 216.87 567.09 C 214.94 569.20 212.99 571.28 210.99 573.32 M 159.02 569.03 C 159.05 602.26 158.98 635.50 159.05 668.73 C 174.08 678.43 190.05 686.68 206.69 693.24 C 206.75 654.74 206.68 616.23 206.72 577.72 C 192.88 592.38 168.65 584.82 159.02 569.03 M 444.75 594.01 C 444.72 629.89 444.72 665.76 444.74 701.64 C 446.81 701.06 448.88 700.46 450.93 699.82 C 450.96 663.16 450.88 626.50 450.97 589.85 C 449.04 591.44 446.93 592.80 444.75 594.01 M 139.39 716.34 C 124.73 730.39 110.19 744.58 95.58 758.70 C 95.37 808.13 95.52 857.57 95.51 907.01 C 132.56 907.15 169.63 907.14 206.69 907.02 C 206.66 852.58 206.87 798.13 206.58 743.70 C 183.32 736.90 160.78 727.71 139.39 716.34 M 455.06 748.09 C 455.04 801.08 455.01 854.07 455.07 907.06 C 492.16 907.10 529.25 907.15 566.34 907.04 C 566.41 857.69 566.37 808.34 566.36 758.99 C 552.82 745.54 539.01 732.34 525.29 719.08 C 503.14 731.50 479.60 741.51 455.06 748.09 M 221.04 747.71 C 220.98 797.71 220.98 847.71 221.04 897.71 C 294.21 897.70 367.38 897.75 440.55 897.68 C 440.59 848.99 440.58 800.30 440.56 751.61 C 368.25 764.97 292.66 765.54 221.04 747.71 Z" />
<path fill="#fbfcfd" opacity="1.00" d=" M 246.79 504.76 C 248.88 500.62 254.95 501.91 255.56 506.38 C 260.06 522.25 266.90 539.43 262.86 555.85 C 249.58 560.42 240.22 536.98 225.74 546.18 C 236.48 534.43 238.83 518.08 246.79 504.76 M 238.72 538.33 C 245.56 541.66 251.42 546.59 257.97 550.38 C 258.34 536.81 254.47 523.63 250.41 510.82 C 246.08 519.80 243.22 529.42 238.72 538.33 Z" />
</g>
<g id="#28166fff">
<path fill="#28166f" opacity="1.00" d=" M 221.05 4.40 C 294.22 4.41 367.38 4.36 440.55 4.43 C 440.60 47.07 440.57 89.72 440.57 132.36 C 367.33 119.98 291.06 127.67 221.01 151.96 C 221.02 102.77 220.95 53.59 221.05 4.40 Z" />
<path fill="#28166f" opacity="1.00" d=" M 159.06 20.42 C 174.94 20.42 190.81 20.39 206.68 20.44 C 206.71 66.10 206.78 111.77 206.65 157.43 C 190.27 163.99 174.36 171.69 159.05 180.44 C 159.02 127.10 158.98 73.76 159.06 20.42 Z" />
<path fill="#28166f" opacity="1.00" d=" M 455.08 20.43 C 470.96 20.41 486.84 20.40 502.72 20.43 C 502.79 63.77 502.75 107.11 502.74 150.44 C 487.30 144.18 471.34 139.22 455.11 135.47 C 454.98 97.12 455.03 58.77 455.08 20.43 Z" />
<path fill="#28166f" opacity="1.00" d=" M 221.32 210.55 C 289.77 180.98 367.94 170.11 440.57 190.16 C 440.58 261.08 440.57 332.00 440.58 402.92 C 419.59 402.66 399.45 409.43 378.95 412.94 C 367.50 415.49 354.46 417.01 345.97 425.96 C 339.06 434.02 342.98 449.12 353.99 451.07 C 369.99 453.85 385.63 447.04 401.56 446.48 C 370.72 478.94 332.37 504.67 307.02 542.04 C 294.75 558.41 308.40 583.84 328.96 582.17 C 356.77 580.02 385.89 577.73 411.31 565.29 C 420.99 561.38 426.66 547.05 416.93 540.07 C 401.96 530.98 383.28 534.45 366.77 536.07 C 392.63 513.32 417.80 489.67 440.58 463.80 C 440.50 482.43 440.69 501.07 440.49 519.70 C 435.07 538.29 428.57 556.59 423.07 575.18 C 420.52 585.50 429.87 596.51 440.59 595.11 C 440.55 631.00 440.59 666.89 440.57 702.78 C 369.00 722.28 291.38 724.52 221.05 698.70 C 220.95 655.89 221.03 613.09 221.01 570.29 C 233.94 582.22 250.12 592.28 268.00 593.75 C 285.96 593.54 295.53 574.11 297.53 558.53 C 300.84 528.51 282.51 501.84 281.63 472.26 C 278.22 451.99 289.79 433.85 298.56 416.60 C 303.66 407.93 307.13 393.55 295.70 388.29 C 284.00 382.22 262.13 379.39 256.98 394.98 C 244.85 433.15 242.71 475.14 221.04 509.79 C 220.98 486.63 220.99 463.47 221.04 440.31 C 225.88 434.22 231.69 428.40 234.39 421.00 C 234.38 414.31 226.24 412.89 221.03 412.42 C 221.18 345.14 220.60 277.78 221.32 210.55 Z" />
<path fill="#28166f" opacity="1.00" d=" M 455.07 194.19 C 471.44 199.23 487.55 205.30 502.75 213.22 C 502.65 253.71 502.95 294.22 502.60 334.70 C 486.62 381.46 470.62 428.24 455.12 475.16 C 456.62 462.95 450.64 448.12 460.65 438.63 C 469.52 429.34 464.89 414.25 455.09 407.61 C 455.00 336.47 455.04 265.33 455.07 194.19 Z" />
<path fill="#28166f" opacity="1.00" d=" M 159.08 247.14 C 173.50 235.41 190.06 226.00 206.69 217.57 C 206.58 283.48 207.00 349.45 206.49 415.33 C 190.69 427.60 174.89 439.86 159.05 452.07 C 159.04 441.39 158.93 430.71 159.10 420.04 C 169.41 380.11 186.66 342.37 201.28 304.00 C 196.96 292.82 180.39 294.61 170.67 296.66 C 162.00 299.03 162.68 309.77 159.08 316.38 C 159.00 293.30 158.97 270.22 159.08 247.14 Z" />
<path fill="#28166f" opacity="1.00" d=" M 496.84 466.94 C 498.62 458.46 500.41 449.97 502.70 441.61 C 502.75 448.56 502.85 455.53 502.66 462.48 C 500.73 463.99 498.80 465.49 496.84 466.94 Z" />
<path fill="#28166f" opacity="1.00" d=" M 166.12 490.37 C 179.06 477.79 193.37 466.72 206.71 454.58 C 206.62 479.58 206.88 504.60 206.59 529.59 C 200.87 536.15 193.25 546.45 183.52 543.57 C 173.71 527.59 171.18 508.23 166.12 490.37 Z" />
<path fill="#28166f" opacity="1.00" d=" M 238.72 538.33 C 243.22 529.42 246.08 519.80 250.41 510.82 C 254.47 523.63 258.34 536.81 257.97 550.38 C 251.42 546.59 245.56 541.66 238.72 538.33 Z" />
<path fill="#28166f" opacity="1.00" d=" M 478.33 531.65 C 486.63 546.81 492.19 563.50 502.52 577.51 C 503.02 611.55 502.67 645.70 502.70 679.78 C 487.69 687.62 471.27 693.29 455.07 698.53 C 455.05 660.73 454.97 622.93 455.11 585.13 C 465.53 568.61 471.65 549.89 478.33 531.65 Z" />
<path fill="#28166f" opacity="1.00" d=" M 159.02 569.03 C 168.65 584.82 192.88 592.38 206.72 577.72 C 206.68 616.23 206.75 654.74 206.69 693.24 C 190.05 686.68 174.08 678.43 159.05 668.73 C 158.98 635.50 159.05 602.26 159.02 569.03 Z" />
<path fill="#28166f" opacity="1.00" d=" M 139.39 716.34 C 160.78 727.71 183.32 736.90 206.58 743.70 C 206.87 798.13 206.66 852.58 206.69 907.02 C 169.63 907.14 132.56 907.15 95.51 907.01 C 95.52 857.57 95.37 808.13 95.58 758.70 C 110.19 744.58 124.73 730.39 139.39 716.34 Z" />
<path fill="#28166f" opacity="1.00" d=" M 455.06 748.09 C 479.60 741.51 503.14 731.50 525.29 719.08 C 539.01 732.34 552.82 745.54 566.36 758.99 C 566.37 808.34 566.41 857.69 566.34 907.04 C 529.25 907.15 492.16 907.10 455.07 907.06 C 455.01 854.07 455.04 801.08 455.06 748.09 Z" />
<path fill="#28166f" opacity="1.00" d=" M 221.04 747.71 C 292.66 765.54 368.25 764.97 440.56 751.61 C 440.58 800.30 440.59 848.99 440.55 897.68 C 367.38 897.75 294.21 897.70 221.04 897.71 C 220.98 847.71 220.98 797.71 221.04 747.71 Z" />
</g>
<g id="#6a7cb3fd">
<path fill="#6a7cb3" opacity="1.00" d=" M 183.57 174.49 C 249.90 142.31 324.89 129.51 398.26 133.59 C 468.01 137.61 538.42 163.53 587.63 214.37 C 662.13 288.87 675.05 411.60 628.08 504.04 C 611.00 536.45 585.93 566.59 552.03 582.07 C 538.49 588.80 520.15 588.47 509.80 576.24 C 495.10 558.71 489.90 535.47 476.76 516.90 C 468.12 539.77 462.23 564.56 447.40 584.42 C 441.60 593.05 426.97 587.53 429.08 577.10 C 456.87 488.01 486.55 399.47 517.52 311.43 C 524.69 307.23 534.44 308.45 542.06 311.25 C 519.35 366.48 497.39 422.60 487.40 481.81 C 510.39 464.78 532.74 446.85 555.44 429.42 C 560.69 424.76 568.49 425.60 574.76 427.38 C 558.82 456.43 527.71 474.19 505.23 498.23 C 510.40 518.95 516.97 539.65 527.89 558.13 C 542.34 548.87 556.79 539.28 568.46 526.55 C 603.61 489.41 616.87 436.94 618.02 387.01 C 619.86 350.30 611.32 312.71 591.35 281.63 C 560.02 232.46 506.27 202.31 451.39 186.57 C 348.50 156.06 232.47 182.07 148.29 247.26 C 95.40 288.58 61.08 351.50 52.73 417.90 C 43.74 484.62 52.21 557.03 91.82 613.20 C 128.03 665.26 186.51 697.65 246.99 713.08 C 284.40 722.64 323.39 727.02 361.89 722.67 C 431.01 717.60 498.64 695.15 556.93 657.64 C 563.46 665.32 569.75 673.22 576.07 681.08 C 546.72 699.32 517.58 718.42 485.41 731.41 C 419.42 756.71 346.65 758.15 277.08 751.76 C 207.36 743.25 137.07 718.63 85.24 669.73 C 40.74 628.52 15.10 569.84 8.82 510.02 C 1.03 437.08 12.25 360.43 49.48 296.45 C 80.19 243.16 128.48 201.20 183.57 174.49 Z" />
<path fill="#6a7cb3" opacity="1.00" d=" M 170.48 303.45 C 178.15 300.44 187.33 300.72 194.84 304.07 C 171.59 359.14 150.18 415.42 139.96 474.57 C 162.89 457.36 185.37 439.53 208.07 422.02 C 213.48 417.21 221.61 418.24 227.99 420.27 C 210.98 448.26 181.64 465.21 159.29 488.40 C 163.90 506.92 167.73 525.90 175.76 543.31 C 178.37 550.24 186.98 552.59 193.26 549.21 C 207.49 542.31 215.48 527.82 224.70 515.69 C 248.88 479.39 250.40 434.31 264.01 394.00 C 272.94 386.70 291.28 388.78 297.18 399.01 C 294.44 420.02 276.69 436.38 275.19 458.10 C 272.48 485.99 285.31 511.65 290.53 538.37 C 293.42 554.08 291.23 572.50 278.70 583.67 C 271.24 590.28 260.58 586.84 252.41 583.56 C 238.92 577.80 226.39 569.00 218.03 556.78 C 207.46 567.88 195.48 585.89 177.67 577.37 C 154.04 561.53 146.03 531.97 133.02 508.09 C 123.42 533.05 118.25 561.95 97.90 580.90 C 91.24 587.69 87.46 574.12 88.82 569.04 C 114.08 479.94 139.57 390.78 170.48 303.45 M 246.79 504.76 C 238.83 518.08 236.48 534.43 225.74 546.18 C 240.22 536.98 249.58 560.42 262.86 555.85 C 266.90 539.43 260.06 522.25 255.56 506.38 C 254.95 501.91 248.88 500.62 246.79 504.76 Z" />
<path fill="#6a7cb3" opacity="1.00" d=" M 360.13 424.13 C 385.02 417.73 410.37 411.69 436.00 409.15 C 448.21 406.90 463.71 418.82 457.82 431.75 C 426.54 475.61 385.51 511.17 345.37 546.63 C 366.63 542.69 389.30 536.49 410.53 543.48 C 418.41 545.91 416.36 556.10 409.84 558.86 C 388.93 570.47 364.28 572.03 341.02 575.21 C 330.38 577.01 315.75 576.81 310.61 565.35 C 304.80 554.02 313.28 542.69 320.14 534.14 C 348.83 500.23 385.44 474.17 415.04 441.14 C 394.63 436.55 374.62 448.17 354.37 444.67 C 343.54 440.06 350.31 425.23 360.13 424.13 Z" />
</g>
</svg>
